<svg xmlns="http://www.w3.org/2000/svg" viewBox="0 0 128 128">
  <path fill-rule="evenodd" clip-rule="evenodd" fill="#3A4D54" d="M20.8 45.3c-1.4 0-2.6 1.2-2.6 2.6v12.8c0 1.4 1.2 2.6 2.6 2.6h12.8c1.4 0 2.6-1.2 2.6-2.6V48c0-1.4-1.2-2.6-2.6-2.6H20.8zM40.8 45.3c-1.4 0-2.6 1.2-2.6 2.6v12.8c0 1.4 1.2 2.6 2.6 2.6h12.8c1.4 0 2.6-1.2 2.6-2.6V48c0-1.4-1.2-2.6-2.6-2.6H40.8zM60.8 45.3c-1.4 0-2.6 1.2-2.6 2.6v12.8c0 1.4 1.2 2.6 2.6 2.6h12.8c1.4 0 2.6-1.2 2.6-2.6V48c0-1.4-1.2-2.6-2.6-2.6H60.8zM80.8 45.3c-1.4 0-2.6 1.2-2.6 2.6v12.8c0 1.4 1.2 2.6 2.6 2.6h12.8c1.4 0 2.6-1.2 2.6-2.6V48c0-1.4-1.2-2.6-2.6-2.6H80.8zM20.8 65.3c-1.4 0-2.6 1.2-2.6 2.6v12.8c0 1.4 1.2 2.6 2.6 2.6h12.8c1.4 0 2.6-1.2 2.6-2.6V68c0-1.4-1.2-2.6-2.6-2.6H20.8zM40.8 65.3c-1.4 0-2.6 1.2-2.6 2.6v12.8c0 1.4 1.2 2.6 2.6 2.6h12.8c1.4 0 2.6-1.2 2.6-2.6V68c0-1.4-1.2-2.6-2.6-2.6H40.8zM60.8 65.3c-1.4 0-2.6 1.2-2.6 2.6v12.8c0 1.4 1.2 2.6 2.6 2.6h12.8c1.4 0 2.6-1.2 2.6-2.6V68c0-1.4-1.2-2.6-2.6-2.6H60.8zM80.8 65.3c-1.4 0-2.6 1.2-2.6 2.6v12.8c0 1.4 1.2 2.6 2.6 2.6h12.8c1.4 0 2.6-1.2 2.6-2.6V68c0-1.4-1.2-2.6-2.6-2.6H80.8z"/>
  <path fill="#00AADA" d="M108.8 45.3c-1.4 0-2.6 1.2-2.6 2.6v12.8c0 1.4 1.2 2.6 2.6 2.6h12.8c1.4 0 2.6-1.2 2.6-2.6V48c0-1.4-1.2-2.6-2.6-2.6h-12.8zM108.8 65.3c-1.4 0-2.6 1.2-2.6 2.6v12.8c0 1.4 1.2 2.6 2.6 2.6h12.8c1.4 0 2.6-1.2 2.6-2.6V68c0-1.4-1.2-2.6-2.6-2.6h-12.8z"/>
</svg>
