<svg xmlns="http://www.w3.org/2000/svg" viewBox="0 0 128 128">
  <path d="M64.004 25.602c-17.067 0-27.73 8.53-32 25.597 6.398-8.531 13.867-11.73 22.398-9.597 4.871 1.214 8.352 4.746 12.207 8.691C72.883 56.629 80.145 64 96.004 64c17.066 0 27.73-8.531 32-25.602-6.399 8.536-13.867 11.735-22.399 9.602-4.87-1.215-8.347-4.746-12.207-8.691-6.27-6.27-13.53-13.64-29.394-13.64zM32.004 64c-17.066 0-27.73 8.531-32 25.598C6.402 81.066 13.868 77.867 22.4 80c4.871 1.215 8.352 4.746 12.207 8.691 9.74 9.741 17.002 17.113 32.863 17.113 17.065 0 27.729-8.53 31.999-25.597-6.399 8.531-13.867 11.73-22.399 9.597-4.87-1.214-8.347-4.746-12.207-8.691C41.337 71.371 34.075 64 32.004 64z" fill="#38bdf8"/>
</svg>
