<svg xmlns="http://www.w3.org/2000/svg" viewBox="0 0 128 128">
  <path fill="#3178c6" d="M2 63.91v62.5h125v-125H2zm100 73.73a7.6 7.6 0 01-2.47 3.93 12 12 0 01-7.51 2.11 19 19 0 01-8.84-2.44 18.55 18.55 0 01-7.36-7.08 24.58 24.58 0 01-2.58-10.81 23.75 23.75 0 012.47-10.12 18.92 18.92 0 016.69-6.8 19.32 19.32 0 018.41-2.52 16.34 16.34 0 017.68 2.09 7.69 7.69 0 012.41 3.64l-3.88 2.08a4.32 4.32 0 00-1.56-2.25 5.78 5.78 0 00-3.28-.89 11.07 11.07 0 00-5.82 1.52 11.79 11.79 0 00-4.39 4.32 19.25 19.25 0 00-2.35 6.47 29 29 0 00-.8 7.89 26.23 26.23 0 00.86 7.27 18.18 18.18 0 002.69 5.78 12.19 12.19 0 004.96 4.06 15.88 15.88 0 006.15 1.19 12.81 12.81 0 006-1.39 10.11 10.11 0 004.24-3.89l3.66 2.19a13.08 13.08 0 01-2.53 4.15zM73.6 111.07l2.25-2.52-6.59-7.59H85.4V96.23H62.93l10.92-12.06L62.07 74.4h24.08V62.29H58.09l15.51 17.58z"/>
</svg>
